<svg width="294.141" height="73.438" viewBox="0 0 294.141 73.438" xmlns="http://www.w3.org/2000/svg"><g id="svgGroup" stroke-linecap="round" fill-rule="evenodd" font-size="9pt" stroke="#1b2824" stroke-width="0.65mm" fill="none" style="stroke:#1b2824;stroke-width:0.65mm;fill:none"><path d="M 102.588 52.344 L 71.24 52.344 L 63.33 72.461 L 53.662 72.461 L 81.738 3.662 L 92.334 3.662 L 119.971 72.461 L 110.449 72.461 L 102.588 52.344 Z M 157.91 45.654 L 137.695 45.654 L 137.695 72.461 L 128.369 72.461 L 128.369 3.662 L 157.324 3.662 A 39.687 39.687 0 0 1 164.337 4.242 Q 168.173 4.932 171.219 6.442 A 19.507 19.507 0 0 1 175.244 9.082 A 17.647 17.647 0 0 1 181.195 19.711 A 26.076 26.076 0 0 1 181.592 24.365 A 24.702 24.702 0 0 1 180.959 30.078 A 19.397 19.397 0 0 1 178.711 35.645 Q 175.83 40.43 170.532 43.042 Q 165.234 45.654 157.91 45.654 Z M 294.141 34.57 L 294.141 44.58 L 245.557 64.941 L 245.557 57.471 L 287.451 39.551 L 245.557 21.68 L 245.557 14.16 L 294.141 34.57 Z M 6.689 39.551 L 48.584 57.471 L 48.584 64.941 L 0 44.58 L 0 34.57 L 48.584 14.16 L 48.584 21.68 L 6.689 39.551 Z M 232.91 0 L 240.625 0 L 220.752 73.438 L 212.842 73.438 L 232.91 0 Z M 156.201 11.133 L 137.695 11.133 L 137.695 38.281 L 156.592 38.281 Q 161.567 38.281 164.957 36.885 A 11.833 11.833 0 0 0 168.311 34.839 Q 171.856 31.714 172.184 25.713 A 22.964 22.964 0 0 0 172.217 24.463 A 15.699 15.699 0 0 0 171.247 18.709 Q 168.56 11.858 158.429 11.202 A 34.516 34.516 0 0 0 156.201 11.133 Z M 82.813 22.656 L 74.072 45.068 L 99.805 45.068 L 90.967 22.363 A 76.439 76.439 0 0 1 90.598 21.42 Q 90.188 20.357 89.662 18.916 A 287.122 287.122 0 0 1 89.16 17.529 Q 88.037 14.404 86.914 10.693 A 153.427 153.427 0 0 1 86.005 13.58 A 211.052 211.052 0 0 1 84.937 16.772 A 214.341 214.341 0 0 1 83.965 19.545 Q 83.513 20.807 83.091 21.926 A 121.447 121.447 0 0 1 82.813 22.656 Z" vector-effect="non-scaling-stroke"/></g></svg>