<svg width="151.514" height="37.231" viewBox="0 0 151.514 37.231" xmlns="http://www.w3.org/2000/svg"><g id="svgGroup" stroke-linecap="round" fill-rule="evenodd" font-size="9pt" stroke="#1b2824" stroke-width="0.25mm" fill="none" style="stroke:#1b2824;stroke-width:0.25mm;fill:none"><path d="M 51.709 27.441 L 38.599 27.441 L 35.547 36.23 L 28.345 36.23 L 40.894 1.831 L 49.39 1.831 L 61.89 36.23 L 54.761 36.23 L 51.709 27.441 Z M 4.736 19.727 L 25.073 27.637 L 25.073 33.179 L 0 23.633 L 0 15.771 L 25.073 6.226 L 25.073 11.792 L 4.736 19.727 Z M 151.514 15.771 L 151.514 23.633 L 126.44 33.179 L 126.44 27.637 L 146.753 19.727 L 126.44 11.792 L 126.44 6.226 L 151.514 15.771 Z M 82.3 24.121 L 73.755 24.121 L 73.755 36.23 L 66.553 36.23 L 66.553 1.831 L 82.007 1.831 A 21.533 21.533 0 0 1 85.672 2.123 Q 87.657 2.466 89.238 3.214 A 10.215 10.215 0 0 1 91.516 4.675 A 9.264 9.264 0 0 1 94.637 10.249 A 13.774 13.774 0 0 1 94.849 12.72 A 12.492 12.492 0 0 1 94.418 16.056 A 10.557 10.557 0 0 1 93.323 18.64 A 10.495 10.495 0 0 1 89.163 22.577 A 12.482 12.482 0 0 1 88.989 22.668 A 12.581 12.581 0 0 1 85.491 23.843 A 17.422 17.422 0 0 1 82.3 24.121 Z M 118.042 0 L 123.853 0 L 116.87 37.231 L 110.938 37.231 L 118.042 0 Z M 81.201 7.422 L 73.755 7.422 L 73.755 18.579 L 81.396 18.579 Q 84.375 18.579 85.986 17.102 A 4.76 4.76 0 0 0 87.371 14.746 Q 87.569 13.993 87.594 13.1 A 9.304 9.304 0 0 0 87.598 12.842 A 6.519 6.519 0 0 0 87.222 10.534 Q 86.143 7.672 81.956 7.442 A 13.775 13.775 0 0 0 81.201 7.422 Z M 43.823 11.401 L 40.21 22.021 L 50.098 22.021 L 46.387 11.182 Q 46.045 10.181 45.752 9.155 A 73.622 73.622 0 0 0 45.142 7.129 A 26.878 26.878 0 0 1 44.931 7.916 Q 44.832 8.267 44.714 8.656 A 53.736 53.736 0 0 1 44.458 9.473 Q 44.019 10.84 43.823 11.401 Z" vector-effect="non-scaling-stroke"/></g></svg>